<svg  viewBox="0 0 264 187" fill="none" xmlns="http://www.w3.org/2000/svg" width>
  <path d="M154.056 30.0986L164.07 85.9902L94.7314 83.048L112.043 21.7848L154.056 30.0986Z" fill="#010101"/>
  <path d="M2.35159 81.1292C5.34418 88.9115 8.26007 96.717 11.2854 104.475C18.6586 98.1122 27.1578 93.1874 36.3433 89.9527L33.6912 84.4933C29.3553 75.5707 25.0178 66.6512 20.6779 57.7358C14.1678 44.363 13.3719 54.8718 18.3286 65.9608C18.3286 65.9608 14.2157 58.0146 10.9442 66.7511C10.9442 66.7511 3.16267 66.2661 5.96428 74.0332C3.44634 74.1563 1.50455 76.2971 1.62761 78.8142C1.66437 79.5565 1.88092 80.2781 2.25889 80.9174C2.29166 80.9765 2.32202 81.054 2.35159 81.1292Z" fill="#F7C0AE"/>
  <path d="M10.6847 67.5337C9.20554 67.4514 7.76158 68.002 6.71317 69.0488C5.92686 70.5215 5.92686 72.2891 6.71317 73.7626C6.79548 73.988 6.76991 74.2397 6.64365 74.445C6.51739 74.6512 6.30324 74.7879 6.06351 74.8158C4.78656 74.9836 3.63187 75.6581 2.85835 76.6865C2.2878 77.9411 2.33974 79.3906 2.99899 80.602L3.09409 80.8418C4.27594 83.9183 5.44901 86.9964 6.61408 90.0745C8.23624 94.3456 9.90634 98.7542 11.5972 103.085C18.6724 97.2751 26.6473 92.6579 35.2096 89.416L32.9857 84.834L25.9697 70.4072L20.1155 58.3729C19.4866 58.1899 18.32 58.0013 17.7934 58.5583C17.4042 58.9682 16.7482 60.4769 19.0535 65.6311C19.2437 66.0242 19.0783 66.4973 18.6852 66.6875C18.2912 66.8776 17.8189 66.7122 17.6288 66.3191C17.2276 65.5472 15.7908 63.3648 14.4532 63.44C13.5134 63.4999 12.5314 64.7696 11.6907 67.0319C11.5692 67.3587 11.2488 67.5673 10.9004 67.5465C10.9004 67.5465 10.8165 67.5337 10.691 67.5337H10.6847ZM11.2832 105.264C11.228 105.264 11.1729 105.259 11.1186 105.248C10.8581 105.192 10.6439 105.009 10.5472 104.761C8.71569 100.062 6.89297 95.2734 5.13257 90.6394C3.9635 87.5645 2.79043 84.4896 1.61257 81.4147L1.52627 81.1998C0.660053 79.5337 0.647268 77.5527 1.49031 75.8746C2.2926 74.6584 3.52559 73.789 4.94079 73.4414C4.24078 71.6794 4.43336 69.688 5.4586 68.0931C6.72036 66.6978 8.52311 65.9171 10.4034 65.9523C11.4869 63.2921 12.7823 61.9536 14.3541 61.8586C14.9854 61.8346 15.6103 61.9976 16.1496 62.3284C15.4608 60.7318 15.643 58.8947 16.6315 57.4644C18.1282 55.9077 20.8371 56.9465 20.9506 56.9913C21.136 57.0648 21.2862 57.2046 21.3725 57.3844L27.3585 69.7152L34.3737 84.142L37.0227 89.6014C37.2137 89.9938 37.0499 90.466 36.6575 90.657C36.6056 90.6818 36.552 90.7018 36.4961 90.7145C30.6452 92.1034 25.1786 94.7787 20.4927 98.5472C20.4591 98.576 20.4232 98.6008 20.3848 98.6215C17.254 100.372 14.3693 102.528 11.8066 105.036C11.6667 105.175 11.4798 105.256 11.2832 105.264Z" fill="black"/>
  <path d="M13.0494 72.1914C12.7378 72.1914 12.4557 72.0084 12.3278 71.7247L10.2326 67.0764C10.0528 66.6793 10.2286 66.2102 10.6266 66.0296C11.0237 65.8506 11.4928 66.0264 11.6726 66.4236L13.7678 71.0719C13.946 71.4714 13.767 71.9405 13.3667 72.1195C13.266 72.1642 13.1565 72.1874 13.0462 72.1882L13.0494 72.1914Z" fill="black"/>
  <path d="M7.44449 78.3591C7.12485 78.3583 6.83718 78.1665 6.71412 77.8709L5.2358 74.3333C5.09037 73.9226 5.30612 73.4703 5.71765 73.3256C6.10042 73.1898 6.52394 73.368 6.69574 73.7356L8.17486 77.2723C8.34347 77.6767 8.15169 78.141 7.74815 78.3096C7.65146 78.3495 7.54837 78.3711 7.44449 78.3711V78.3591Z" fill="black"/>
  <path d="M154.143 30.5677L234.056 48.25L237.393 56.9297L262.046 38.8431L256.755 31.66L232.101 26.024L222.823 33.4292L227.696 23.4414L153.392 9.72496L154.143 30.5677Z" fill="#F06030"/>
  <path d="M203.954 183.521C207.223 180.106 204.523 172.1 203.766 167.434C203.004 164.767 202.076 162.151 200.985 159.601C191.569 127.855 187.517 116.254 175.524 96.3892C173.157 91.9822 170.072 87.9995 166.398 84.6058C163.327 82.3723 161.61 78.5894 158.278 76.7515C152.297 73.5815 145.8 71.5015 139.09 70.6073L139.39 66.9498C132.723 67.4533 126.035 67.5995 119.354 67.3869C119.022 67.3366 118.683 67.4061 118.397 67.5811C118.171 67.8057 118.03 68.1005 117.995 68.4162C117.721 69.6763 117.521 70.9517 117.397 72.235C113.537 71.6916 109.612 71.8459 105.808 72.6905C99.5748 73.8268 93.5832 76.0259 88.095 79.1919C77.0212 85.4104 67.0749 96.2701 58.6174 105.751C55.9804 108.709 52.6641 113.459 48.7014 113.354C45.9653 107.178 41.9172 101.674 36.8373 97.2218C36.2388 96.7487 37.5941 95.845 37.7347 95.0786C37.797 93.9024 37.4686 92.7389 36.8014 91.7688L34.8284 88.1082C34.5927 87.6687 34.2627 87.1684 33.7632 87.1564C33.4875 87.1812 33.2246 87.2851 33.0057 87.4561L13.698 99.4792C12.6952 99.9395 11.9161 100.781 11.5341 101.817C11.3064 102.885 12.5545 104.139 13.4351 103.495C14.7544 104.843 12.187 106.98 12.6656 108.802C13.0875 110.406 15.3354 110.463 16.7178 111.385C17.7175 112.212 18.4414 113.323 18.7954 114.57C22.9851 125.305 26.5291 136.547 33.5419 145.696C34.3921 147.018 35.6219 148.051 37.0707 148.659C40.132 149.444 43.2644 149.923 46.4208 150.087C63.1274 146.999 73.8393 138.202 84.0277 124.603C86.4673 121.346 90.8519 116.494 91.7197 113.828C90.9566 116.192 92.172 118.856 91.1212 121.11C99.8249 122.693 108.064 115.632 116.9 116.04C121.165 116.537 125.282 117.908 128.994 120.068L150.009 130.45C152.966 131.461 155.274 133.809 156.234 136.783C160.846 147.259 163.298 158.034 170.074 168.234C171.772 170.574 172.174 173.613 171.142 176.315C169.391 180.044 162.07 182.373 161.067 186.365H199.378" fill="#EFEFEF"/>
  <path d="M106.984 134.847C107.774 138.122 108.918 141.833 112.006 143.177C113.525 143.708 115.143 143.899 116.744 143.736L129.991 143.353C129.711 144.419 128.96 145.301 127.953 145.747C126.956 146.18 125.894 146.446 124.81 146.534C119.652 147.209 114.443 147.424 109.247 147.175C108.859 147.187 108.475 147.101 108.131 146.924C107.653 146.525 107.362 145.947 107.325 145.326C106.641 141.638 106.477 137.872 106.837 134.138" fill="#010101"/>
  <path d="M51.821 120.289C51.507 118.488 50.9245 116.746 50.091 115.119C49.1505 113.178 48.0877 111.297 46.9098 109.49C44.7547 106.114 42.339 102.92 40.0672 99.6122C39.6757 99.0408 39.2801 98.4631 38.9333 97.8646C38.8102 97.6576 38.7 97.449 38.5953 97.2301C38.4906 97.0119 38.6576 97.4307 38.5953 97.2572C38.5873 97.2133 38.5737 97.1709 38.5529 97.1318C38.4602 97.0303 38.5385 96.916 38.5529 97.1318C38.517 95.9795 36.7214 95.9731 36.7574 97.1318C36.9404 98.1035 37.3719 99.0113 38.0111 99.7648C38.9541 101.193 39.9721 102.573 40.9654 103.955C43.568 107.43 45.9174 111.086 47.9958 114.897C49.0178 116.714 49.7258 118.688 50.091 120.739C50.2221 121.218 50.7159 121.499 51.1946 121.368H51.1961C51.666 121.226 51.9425 120.74 51.8242 120.264L51.821 120.289Z" fill="black"/>
  <path d="M152.101 73.7068C147.788 70.9739 145.055 78.6388 144.119 81.4164C141.949 88.295 140.592 95.4037 140.076 102.598C139.702 106.212 139.602 109.85 139.776 113.48C139.845 114.63 141.643 114.639 141.571 113.48C141.339 103.526 142.561 93.5906 145.199 83.9903C145.827 81.4852 146.81 79.0823 148.118 76.8544C148.349 76.4661 148.627 76.1065 148.943 75.7837C149.027 75.6966 149.114 75.6095 149.204 75.5295C149.245 75.4904 149.452 75.3162 149.375 75.3761C149.375 75.3761 149.673 75.1763 149.817 75.098C150.009 74.991 149.766 75.098 149.874 75.0709C149.982 75.0437 150.056 75.0141 150.15 74.9902C150.317 74.9358 150.32 74.9718 150.212 74.9902H150.464C150.703 74.9902 150.325 74.9326 150.56 74.9902L150.784 75.0501C151.02 75.1156 150.691 74.9814 150.913 75.1036C151.008 75.1548 151.105 75.2083 151.212 75.2682C152.191 75.8907 153.094 74.3341 152.11 73.7148L152.101 73.7068Z" fill="black"/>
  <path d="M107.587 72.3846C103.423 71.8516 101.359 76.73 100.317 79.9152C98.6393 85.7678 97.555 91.7737 97.0787 97.8436C96.6592 101.498 96.2972 105.155 95.8809 108.813C95.8809 109.309 96.2828 109.711 96.779 109.711C97.2705 109.7 97.666 109.304 97.6764 108.813C98.374 102.597 98.9126 96.3621 99.8795 90.1811C100.283 87.4227 100.844 84.689 101.562 81.9953C102.049 79.9392 102.863 77.9742 103.971 76.1763C104.39 75.5106 104.954 74.9481 105.62 74.5301C106.208 74.1777 106.905 74.0547 107.578 74.1857C108.073 74.1857 108.475 73.7838 108.475 73.2876C108.465 72.7969 108.069 72.4006 107.578 72.3894L107.587 72.3846Z" fill="black"/>
  <path d="M140.587 110.273C135.092 110.099 129.6 109.869 124.108 109.618C117.703 109.318 111.297 109.004 104.899 108.594C102.088 108.417 99.2783 108.226 96.4734 107.968C95.3212 107.864 95.3268 109.662 96.4734 109.765C101.945 110.267 107.439 110.561 112.935 110.857C119.338 111.205 125.743 111.504 132.15 111.754C134.966 111.868 137.781 111.968 140.596 112.054C141.752 112.09 141.752 110.291 140.596 110.259L140.587 110.273Z" fill="black"/>
  <path d="M139.803 113.711C141.984 121.292 148.482 126.35 154.082 131.424C154.938 132.195 156.213 130.93 155.355 130.151C150.017 125.318 143.618 120.472 141.536 113.235C141.404 112.756 140.909 112.475 140.432 112.606C139.953 112.738 139.672 113.232 139.803 113.711Z" fill="black"/>
  <path d="M154.128 131.933C154.244 139.041 155.108 146.116 156.705 153.042C158.047 159.651 160.031 166.112 162.631 172.336C163.588 174.753 164.885 177.021 166.483 179.073C167.225 179.97 168.492 178.681 167.755 177.804C166.467 176.118 165.4 174.275 164.579 172.318C163.374 169.61 162.333 166.833 161.461 164.001C159.313 157.218 157.745 150.265 156.774 143.217C156.236 139.479 155.953 135.71 155.927 131.934C155.922 131.437 155.517 131.039 155.021 131.043C154.531 131.048 154.135 131.444 154.131 131.934L154.128 131.933Z" fill="black"/>
  <path d="M88.9756 186.057C90.1127 182.227 90.8479 178.287 91.1691 174.304C91.6302 169.63 91.7676 164.925 91.8012 160.238C91.8851 149.678 91.4656 139.12 91.6693 128.56C91.7365 122.658 92.1136 116.764 92.7977 110.901C92.7977 110.405 92.3957 110.003 91.9003 110.003C91.4088 110.013 91.0117 110.41 91.0021 110.901C89.9169 121.369 89.5374 131.897 89.8642 142.415C89.9809 152.388 90.3341 162.408 89.547 172.345C89.2833 176.827 88.5113 181.264 87.2456 185.571C86.8956 186.676 88.6312 187.147 88.9788 186.05L88.9756 186.057Z" fill="black"/>
  <path d="M150.782 120.506C155.068 133.774 157.366 147.742 163.412 160.397C165.124 163.998 167.158 167.437 169.491 170.671C170.164 171.601 171.723 170.7 171.041 169.774C167.022 164.088 163.839 157.856 161.589 151.268C159.29 144.785 157.615 138.099 155.83 131.475C154.804 127.638 153.736 123.815 152.515 120.039C152.162 118.94 150.42 119.413 150.782 120.514V120.506Z" fill="black"/>
  <path d="M16.5393 109.042C18.454 116.417 20.9375 123.632 23.9677 130.624C25.585 134.391 27.4054 138.069 29.4215 141.638C31.0412 145.207 33.6135 148.26 36.8562 150.462C43.3265 154.032 51.148 151.359 57.2411 148.283C63.776 144.902 69.8899 140.763 75.4563 135.951C81.4943 130.926 86.6844 124.964 90.8285 118.293C91.3191 117.477 91.789 116.649 92.2381 115.811C92.783 114.793 91.2328 113.883 90.6846 114.913C87.0344 121.504 82.3061 127.436 76.6957 132.464C71.3035 137.398 65.3694 141.704 59.007 145.301C56.1175 147.004 53.045 148.377 49.8487 149.393C46.6283 150.511 43.1499 150.653 39.8488 149.803C38.1564 149.282 36.6157 148.358 35.3595 147.109C34.0586 145.714 32.9327 144.167 32.0073 142.5C30.0216 139.16 28.2228 135.713 26.6199 132.174C23.4946 125.305 20.9168 118.199 18.9102 110.924C18.6929 110.143 18.4827 109.361 18.2814 108.577C18.1495 108.098 17.6541 107.818 17.1754 107.95C16.6976 108.082 16.4163 108.577 16.5481 109.055L16.5393 109.042Z" fill="black"/>
  <path d="M94.2759 163.391C97.8151 165.214 101.595 166.524 105.502 167.281C109.137 167.863 112.816 168.111 116.495 168.021C118.92 168.021 121.341 167.958 123.766 167.949C124.262 167.949 124.664 167.547 124.664 167.05C124.664 166.555 124.262 166.154 123.766 166.154C116.331 166.193 108.777 166.725 101.582 164.471C99.3821 163.767 97.2413 162.888 95.1797 161.846C94.1473 161.332 93.2371 162.88 94.2823 163.4L94.2759 163.391Z" fill="black"/>
  <path d="M105.76 132.066C111.67 132.633 117.616 132.699 123.536 132.263C124.682 132.179 124.691 130.38 123.536 130.467C117.616 130.904 111.67 130.838 105.76 130.269C104.608 130.158 104.617 131.958 105.76 132.066Z" fill="black"/>
  <path d="M31.5667 86.8008C27.302 90.8227 22.3052 93.9887 16.8466 96.127C13.7494 97.1179 8.52331 98.1471 8.8861 102.439C8.8861 103.772 9.47343 105.037 10.4899 105.899C11.6837 106.465 13.0845 106.375 14.1953 105.659C14.6819 105.375 14.8465 104.749 14.562 104.263C14.2776 103.776 13.6527 103.611 13.166 103.896C12.7289 104.153 11.774 104.494 11.4176 103.997C11.0069 103.307 10.8359 102.5 10.9334 101.701C11.1451 100.442 12.5371 99.7293 13.7198 99.2715C15.4946 98.5858 17.3589 98.1791 19.1281 97.4751C21.5693 96.477 23.8898 95.2057 26.045 93.6858C28.4686 92.0093 30.7436 90.1275 33.0123 88.244C34.0239 87.4058 32.5752 85.9658 31.5667 86.8008Z" fill="black"/>
  <path d="M32.926 88.1558C33.3919 87.7467 33.8929 87.3775 34.4227 87.0547C34.4914 87.0219 34.9613 86.8964 34.8055 86.8629C34.7096 86.8421 34.8239 86.902 34.8055 86.8876C34.8822 87.0019 34.9477 87.1234 35.0029 87.2496C35.5031 88.3452 35.6014 89.5846 36.0353 90.7065C36.5323 91.9874 37.6726 92.9128 38.1697 94.1969C38.4366 94.6804 38.3271 95.2861 37.906 95.6449C37.0397 96.281 36.1184 96.8387 35.1523 97.3118C31.5907 99.3591 27.8949 101.182 24.4469 103.429C22.8007 104.497 21.1842 105.608 19.5021 106.62C17.995 107.658 16.3353 108.457 14.5821 108.984C14.4614 109.013 14.3368 109.019 14.2137 109.005C14.1961 109.005 14.2137 109.03 14.1602 108.961C14.1058 108.892 14.1242 108.961 14.0579 108.787C14.0819 108.85 13.95 108.377 13.95 108.38C13.918 108.119 13.9093 107.855 13.9236 107.593C13.9388 107.088 14.0091 106.586 14.133 106.096C14.1841 105.887 14.2465 105.686 14.3096 105.483C14.3336 105.401 14.4143 105.222 14.3336 105.401C14.3615 105.341 14.3935 105.282 14.4295 105.224C15.0575 104.249 13.5017 103.348 12.8792 104.326C12.4134 105.228 12.1624 106.224 12.1457 107.238C11.9019 108.426 12.2999 109.654 13.1933 110.474C14.5821 111.389 16.563 110.204 17.832 109.576C19.8721 108.523 21.841 107.34 23.7285 106.032C25.6351 104.772 27.5505 103.565 29.5499 102.458C31.7554 101.237 33.9792 100.043 36.1671 98.7829C37.834 97.8216 40.3784 96.8044 40.0763 94.463C39.8549 92.7458 38.439 91.647 37.7597 90.1983C37.1069 88.8095 37.2092 86.9388 36.1464 85.6906C34.7815 84.0924 32.779 85.9599 31.6267 86.8669C30.7293 87.5821 32.0015 88.8446 32.8989 88.1358L32.926 88.1558Z" fill="black"/>
  <path d="M35.781 89.8434C33.4589 91.5239 31.1 93.1509 28.7059 94.7251C28.2872 94.9824 28.1449 95.5226 28.3822 95.9525C28.6316 96.3808 29.1813 96.5254 29.6096 96.2769C29.6112 96.2761 29.6112 96.2761 29.6128 96.2753C32.0069 94.7027 34.3658 93.075 36.688 91.3937C37.1035 91.1348 37.2442 90.5954 37.0084 90.1663C36.7591 89.7371 36.2093 89.5925 35.781 89.8418C35.7794 89.8426 35.7778 89.8434 35.7778 89.8434H35.781Z" fill="black"/>
  <path d="M121.953 186.423L123.528 182.766L127.775 172.889L134.06 158.247L141.743 140.379L150.124 120.87L158.641 101.059L166.534 82.7033L173.226 67.1402L178.036 55.9545C178.793 54.1933 179.549 52.4329 180.308 50.6725L180.407 50.4424C180.858 49.3916 179.311 48.479 178.857 49.5442L177.282 53.2048L173.032 63.0816L166.746 77.7266L159.064 95.5919L150.683 115.1L142.166 134.91L134.273 153.269L127.583 168.833L122.773 180.018C122.016 181.779 121.257 183.539 120.499 185.3L120.4 185.53C119.948 186.581 121.499 187.495 121.953 186.429V186.423Z" fill="black"/>
  <path d="M117.044 186.125L118.627 182.443L122.898 172.507L129.229 157.778L136.954 139.82L145.388 120.207L153.953 100.28L161.891 81.8194L168.619 66.1684L173.456 54.9212C174.217 53.1472 174.978 51.3756 175.74 49.6056L175.839 49.3755C176.29 48.3247 174.743 47.4065 174.286 48.4773L172.705 52.1587L168.434 62.0954L162.104 76.8243L154.379 94.7822L145.945 114.398L137.379 134.322L129.441 152.783L122.713 168.43L117.876 179.682L115.593 184.993L115.494 185.227C115.042 186.277 116.59 187.193 117.044 186.125Z" fill="black"/>
  <path d="M175.779 40.4703C174.562 42.0693 173.659 43.884 173.118 45.8194C173.15 47.4192 174.116 48.8527 175.587 49.4832C177.133 50.3319 178.842 50.8417 180.601 50.9791C181.329 51.0574 182.065 51.0159 182.78 50.8569C183.561 50.6619 183.872 50.0873 184.258 49.4529C185.148 47.9865 186.04 46.5202 186.934 45.0563C187.153 44.6112 186.969 44.0734 186.524 43.8552C186.121 43.657 185.635 43.7873 185.384 44.1581L183.328 47.5366C182.971 48.0113 182.661 48.5195 182.403 49.0549C182.403 49.0757 182.331 49.1476 182.337 49.1588C182.344 49.1708 182.562 49.1348 182.475 49.0845C182.352 49.1029 182.233 49.1332 182.116 49.1748C181.857 49.2115 181.596 49.2291 181.334 49.2259C179.957 49.2067 178.597 48.9127 177.333 48.3637C176.387 47.9626 175.01 47.2026 174.897 46.2261C174.958 45.3671 175.271 44.5448 175.795 43.8616C176.295 43.0322 176.879 42.2538 177.318 41.3892C177.846 40.3632 176.295 39.4562 175.768 40.491L175.779 40.4703Z" fill="black"/>
  <path d="M176.79 41.7916C176.727 41.7916 177.011 41.7557 176.79 41.7916L177.006 41.7701C177.146 41.7701 177.287 41.7525 177.427 41.7493C177.793 41.7493 178.16 41.7493 178.523 41.7701C179.39 41.8196 180.251 41.957 181.09 42.18C182.862 42.4813 184.42 43.5265 185.371 45.0503C185.891 46.0828 187.442 45.1766 186.921 44.153C185.765 42.2463 183.861 40.915 181.674 40.4827C179.933 39.9697 178.104 39.8283 176.305 40.0672C175.828 40.199 175.547 40.6937 175.679 41.1715C175.819 41.643 176.307 41.9211 176.784 41.7996L176.79 41.7916Z" fill="black"/>
  <path d="M236.569 57.7324L236.271 57.6757L185.611 48.9416L185.871 47.4457L236.219 56.1247L260.992 38.6669L256.329 32.3277L232.31 26.8356L220.688 36.1146L226.606 23.9868L154.194 10.6164L154.328 38.1283L173.483 44.5602L172.999 46.0026L152.805 39.2231L152.655 8.78168L228.848 22.8489L225.019 30.6968L231.924 25.1774L257.212 30.9597L263.132 39.0081L236.569 57.7324Z" fill="black"/>
  <path d="M235.408 57.1875L233.248 49.1063L165.327 35.7822L165.719 33.7917L234.882 47.3587L237.368 56.6369L235.408 57.1875Z" fill="black"/>
  <path d="M210.497 39.1816C210.304 39.1832 210.113 39.1289 209.95 39.0258C209.459 38.7245 209.306 38.0837 209.608 37.593L209.608 37.5922L215.687 27.7426C215.988 27.252 216.631 27.0993 217.121 27.4014C217.611 27.7027 217.764 28.3443 217.462 28.835L211.383 38.6846C211.194 38.993 210.859 39.1808 210.497 39.1816Z" fill="black"/>
  <path d="M190.121 34.6621C189.561 34.6621 189.106 34.2082 189.106 33.6481C189.106 33.4707 189.153 33.2957 189.241 33.1414L195.096 22.9083C195.375 22.4216 195.995 22.253 196.482 22.5319C196.969 22.81 197.137 23.4301 196.858 23.9167L191.004 34.1499C190.824 34.4679 190.486 34.6637 190.121 34.6621Z" fill="black"/>
  <path d="M173.995 31.0293C173.84 31.0293 173.687 30.9925 173.549 30.9222C173.055 30.6777 172.853 30.08 173.096 29.5869C173.098 29.5845 173.098 29.5829 173.1 29.5813L177.781 20.2368C178.028 19.7405 178.631 19.5392 179.127 19.7877C179.623 20.0354 179.824 20.6387 179.576 21.1349L174.895 30.4787C174.723 30.8183 174.375 31.0309 173.995 31.0293Z" fill="black"/>
  <path d="M137.785 56.2098L139.171 66.7179C139.171 66.7179 130.56 79.8869 120.914 78.9655L122.512 55.0487L137.785 56.2098Z" fill="#F7C0AE"/>
  <path d="M137.785 56.2135C137.785 56.2135 137.701 59.2604 132.93 59.7247C132.93 59.7247 131.086 58.6323 129.006 63.9895C126.927 69.3474 121.593 61.772 121.593 61.772L122.057 54.8255L137.785 56.2135Z" fill="#010101"/>
  <path d="M104.929 34.1892C105.616 30.6245 108.739 28.2288 111.906 28.8385C115.073 29.4482 117.083 32.8316 116.398 36.3963C115.711 39.961 112.589 42.3567 109.421 41.747C106.254 41.1373 104.243 37.754 104.929 34.1892Z" fill="#EDA18C"/>
  <path d="M132.064 10.3743C144.919 10.3743 155.341 20.7952 155.341 33.651C155.341 46.506 144.919 56.9277 132.064 56.9277C119.209 56.9277 108.787 46.506 108.787 33.651C108.787 20.7952 119.209 10.3743 132.064 10.3743Z" fill="#F7C0AE"/>
  <path d="M134.797 38.2321C135.428 39.5155 134.899 41.0665 133.615 41.697C132.331 42.3275 130.78 41.7985 130.15 40.5151C129.742 39.6849 129.808 38.7004 130.323 37.9325C131.263 36.7546 132.981 36.562 134.159 37.5018C134.414 37.7055 134.63 37.9532 134.797 38.2321Z" fill="#F06030"/>
  <path d="M121.209 37.9578C121.832 39.2443 121.294 40.7929 120.007 41.4162C118.721 42.0395 117.172 41.5017 116.549 40.2152C116.151 39.3921 116.215 38.4204 116.72 37.6581C117.654 36.4754 119.37 36.2741 120.554 37.209C120.816 37.416 121.038 37.6701 121.209 37.9578Z" fill="#F06030"/>
  <path d="M122.913 43.0276C122.943 44.088 123.713 44.9814 124.757 45.1676C125.851 45.3586 126.948 44.844 127.501 43.8811C127.843 43.3345 128.041 42.7104 128.076 42.0671C128.109 41.5677 127.334 41.5709 127.301 42.0671C127.288 43.1459 126.588 44.0968 125.562 44.4292C124.725 44.6082 123.901 44.0752 123.722 43.2378C123.707 43.1699 123.697 43.1003 123.691 43.0316C123.71 42.5314 122.935 42.5346 122.916 43.0316L122.913 43.0276Z" fill="black"/>
  <path d="M128.322 32.3054C128.692 32.2814 129.05 33.1388 129.121 34.2208C129.191 35.3036 128.947 36.2001 128.576 36.2241C128.204 36.2481 127.847 35.3907 127.777 34.3079C127.706 33.2259 127.951 32.3293 128.322 32.3054Z" fill="#010101"/>
  <path d="M122.274 32.073C122.645 32.049 123.003 32.9064 123.073 33.9884C123.143 35.0711 122.899 35.9677 122.528 35.9917C122.156 36.0157 121.799 35.1582 121.729 34.0755C121.659 32.9935 121.903 32.0969 122.274 32.073Z" fill="#010101"/>
  <path d="M114.183 19.5661C117.682 21.9011 121.883 22.9519 126.068 22.538C128.925 21.7141 131.822 21.0389 134.749 20.5147C137.717 20.3828 141.189 22.4061 140.946 25.3723C140.881 26.1954 140.528 26.9857 140.525 27.8144C140.525 31.439 146.699 33.0404 146.101 36.614C145.939 37.5713 145.289 38.6189 145.852 39.4092C146.193 39.8878 146.84 40.0077 147.349 40.3074C148.503 41.0489 148.837 42.5864 148.095 43.7403C148.038 43.8306 147.974 43.9153 147.906 43.9976C147.352 44.5961 146.487 44.8957 146.166 45.6493C145.996 46.3045 146.006 46.9934 146.196 47.643C146.288 49.9284 145.42 52.1483 143.802 53.7665C144.966 54.9187 148.372 51.318 150.126 49.0374C151.862 46.5395 153.185 43.7786 154.044 40.8603C156.059 35.1956 155.891 28.9834 153.574 23.4353C148.983 13.7224 135.859 6.74952 125.279 10.2272C120.248 11.7766 115.948 15.0904 113.166 19.5589" fill="#010101"/>
  <path d="M147.226 38.5779C147.913 35.0131 151.035 32.6175 154.202 33.2272C157.37 33.8369 159.38 37.2202 158.695 40.785C158.008 44.3497 154.885 46.7454 151.718 46.1357C148.551 45.526 146.54 42.1426 147.226 38.5779Z" fill="#F7C0AE"/>
  <path d="M138.842 -0.00509453C143.732 -0.00509453 147.696 3.9584 147.696 8.84804C147.696 13.7377 143.732 17.7012 138.842 17.7012C133.953 17.7012 129.989 13.7377 129.989 8.84804C129.989 3.9584 133.953 -0.00509453 138.842 -0.00509453Z" fill="#010101"/>
  </svg>